<mxfile host="app.diagrams.net" agent="Mozilla/5.0 (Windows NT 10.0; Win64; x64) AppleWebKit/537.36 (KHTML, like Gecko) Chrome/131.0.0.0 Safari/537.36 Edg/131.0.0.0" version="25.0.1">
  <diagram name="Page-1" id="2YBvvXClWsGukQMizWep">
    <mxGraphModel dx="1329" dy="800" grid="1" gridSize="10" guides="1" tooltips="1" connect="1" arrows="1" fold="1" page="1" pageScale="1" pageWidth="850" pageHeight="1100" math="0" shadow="0">
      <root>
        <mxCell id="0" />
        <mxCell id="1" parent="0" />
        <mxCell id="SBjMyrN_z3uJzsrYYj4H-38" value="原生线程" style="shape=umlLifeline;participant=umlEntity;perimeter=lifelinePerimeter;whiteSpace=wrap;html=1;container=1;collapsible=0;recursiveResize=0;verticalAlign=top;spacingTop=36;outlineConnect=0;" vertex="1" parent="1">
          <mxGeometry x="150" y="80" width="40" height="700" as="geometry" />
        </mxCell>
        <mxCell id="SBjMyrN_z3uJzsrYYj4H-39" value="SceneManager" style="shape=umlLifeline;participant=umlBoundary;perimeter=lifelinePerimeter;whiteSpace=wrap;html=1;container=1;collapsible=0;recursiveResize=0;verticalAlign=top;spacingTop=36;outlineConnect=0;" vertex="1" parent="1">
          <mxGeometry x="350" y="80" width="50" height="700" as="geometry" />
        </mxCell>
        <mxCell id="SBjMyrN_z3uJzsrYYj4H-40" value="Operation对象" style="shape=umlLifeline;participant=umlControl;perimeter=lifelinePerimeter;whiteSpace=wrap;html=1;container=1;collapsible=0;recursiveResize=0;verticalAlign=top;spacingTop=36;outlineConnect=0;" vertex="1" parent="1">
          <mxGeometry x="550" y="80" width="40" height="700" as="geometry" />
        </mxCell>
        <mxCell id="SBjMyrN_z3uJzsrYYj4H-41" value="FlatBufferBuilder" style="shape=umlLifeline;participant=umlEntity;perimeter=lifelinePerimeter;whiteSpace=wrap;html=1;container=1;collapsible=0;recursiveResize=0;verticalAlign=top;spacingTop=36;outlineConnect=0;" vertex="1" parent="1">
          <mxGeometry x="750" y="80" width="40" height="700" as="geometry" />
        </mxCell>
        <mxCell id="SBjMyrN_z3uJzsrYYj4H-42" value="SendOperation流程" style="shape=umlFrame;whiteSpace=wrap;html=1;width=90;height=30;" vertex="1" parent="1">
          <mxGeometry x="100" y="150" width="700" height="300" as="geometry" />
        </mxCell>
        <mxCell id="SBjMyrN_z3uJzsrYYj4H-43" value="" style="endArrow=classic;html=1;" edge="1" parent="1">
          <mxGeometry relative="1" as="geometry">
            <mxPoint x="170" y="180" as="sourcePoint" />
            <mxPoint x="774.5" y="180" as="targetPoint" />
          </mxGeometry>
        </mxCell>
        <mxCell id="SBjMyrN_z3uJzsrYYj4H-44" value="Clear()" style="edgeLabel;html=1;align=center;verticalAlign=middle;" vertex="1" parent="SBjMyrN_z3uJzsrYYj4H-43">
          <mxGeometry relative="1" as="geometry" />
        </mxCell>
        <mxCell id="SBjMyrN_z3uJzsrYYj4H-45" value="" style="endArrow=classic;html=1;" edge="1" parent="1">
          <mxGeometry relative="1" as="geometry">
            <mxPoint x="170" y="200" as="sourcePoint" />
            <mxPoint x="574.5" y="200" as="targetPoint" />
          </mxGeometry>
        </mxCell>
        <mxCell id="SBjMyrN_z3uJzsrYYj4H-46" value="HasChanged()" style="edgeLabel;html=1;align=center;verticalAlign=middle;" vertex="1" parent="SBjMyrN_z3uJzsrYYj4H-45">
          <mxGeometry relative="1" as="geometry" />
        </mxCell>
        <mxCell id="SBjMyrN_z3uJzsrYYj4H-47" value="" style="endArrow=classic;html=1;" edge="1" parent="1">
          <mxGeometry relative="1" as="geometry">
            <mxPoint x="570" y="220" as="sourcePoint" />
            <mxPoint x="770" y="220" as="targetPoint" />
          </mxGeometry>
        </mxCell>
        <mxCell id="SBjMyrN_z3uJzsrYYj4H-48" value="Pack(builder)" style="edgeLabel;html=1;align=center;verticalAlign=middle;" vertex="1" parent="SBjMyrN_z3uJzsrYYj4H-47">
          <mxGeometry relative="1" as="geometry" />
        </mxCell>
        <mxCell id="SBjMyrN_z3uJzsrYYj4H-49" value="ApplyOperation流程" style="shape=umlFrame;whiteSpace=wrap;html=1;width=90;height=30;" vertex="1" parent="1">
          <mxGeometry x="100" y="480" width="700" height="300" as="geometry" />
        </mxCell>
        <mxCell id="SBjMyrN_z3uJzsrYYj4H-50" value="" style="endArrow=classic;html=1;" edge="1" parent="1">
          <mxGeometry relative="1" as="geometry">
            <mxPoint x="170" y="510" as="sourcePoint" />
            <mxPoint x="374.5" y="510" as="targetPoint" />
          </mxGeometry>
        </mxCell>
        <mxCell id="SBjMyrN_z3uJzsrYYj4H-51" value="Operations.TryPeek" style="edgeLabel;html=1;align=center;verticalAlign=middle;" vertex="1" parent="SBjMyrN_z3uJzsrYYj4H-50">
          <mxGeometry relative="1" as="geometry" />
        </mxCell>
        <mxCell id="SBjMyrN_z3uJzsrYYj4H-52" value="" style="endArrow=classic;html=1;" edge="1" parent="1">
          <mxGeometry relative="1" as="geometry">
            <mxPoint x="370" y="530" as="sourcePoint" />
            <mxPoint x="170" y="530" as="targetPoint" />
          </mxGeometry>
        </mxCell>
        <mxCell id="SBjMyrN_z3uJzsrYYj4H-53" value="TryDequeue" style="edgeLabel;html=1;align=center;verticalAlign=middle;" vertex="1" parent="SBjMyrN_z3uJzsrYYj4H-52">
          <mxGeometry relative="1" as="geometry" />
        </mxCell>
        <mxCell id="SBjMyrN_z3uJzsrYYj4H-54" value="" style="endArrow=classic;html=1;" edge="1" parent="1">
          <mxGeometry relative="1" as="geometry">
            <mxPoint x="170" y="550" as="sourcePoint" />
            <mxPoint x="170" y="590" as="targetPoint" />
            <Array as="points">
              <mxPoint x="200" y="550" />
              <mxPoint x="200" y="590" />
            </Array>
          </mxGeometry>
        </mxCell>
        <mxCell id="SBjMyrN_z3uJzsrYYj4H-55" value="ApplyOperation" style="edgeLabel;html=1;align=center;verticalAlign=middle;" vertex="1" parent="SBjMyrN_z3uJzsrYYj4H-54">
          <mxGeometry relative="1" as="geometry">
            <mxPoint x="30" y="-10" as="offset" />
          </mxGeometry>
        </mxCell>
      </root>
    </mxGraphModel>
  </diagram>
</mxfile>
